<svg width="406" height="392" viewBox="0 0 406 392" fill="none" xmlns="http://www.w3.org/2000/svg">
<g clip-path="url(#clip0_1840_18846)">
<path d="M48.3302 275.68C48.2802 273.76 48.2102 271.87 48.2002 269.98L48.4802 270.26C43.9402 270.31 39.3902 270.42 34.8502 270.43L21.2202 270.49L21.7302 269.98L21.6702 281.5L21.2102 281.04C23.4602 281.06 25.7002 281.04 27.9502 281.1L34.7202 281.22L48.4702 281.51L48.3202 275.69L48.3302 275.68ZM34.9702 281.79L28.1102 281.91C25.8202 281.96 23.5202 281.95 21.2202 281.97H20.7602V281.51L20.7002 269.99V269.47H21.2102L34.8402 269.53C39.3802 269.53 43.9302 269.65 48.4702 269.7H48.7502V269.98C48.7302 271.93 48.6602 273.88 48.6202 275.8L48.4702 281.5L34.9602 281.79H34.9702Z" fill="#EBEBEB"/>
<path d="M33.1202 290.21C33.0702 288.29 33.0002 286.4 32.9902 284.51L33.2702 284.79C28.7302 284.84 24.1802 284.95 19.6402 284.96L6.01023 285.02L6.52023 284.51L6.46023 296.03L6.00023 295.57C8.25023 295.59 10.4902 295.57 12.7402 295.63L19.5102 295.75L33.2602 296.04L33.1102 290.22L33.1202 290.21ZM19.7602 296.32L12.9002 296.44C10.6102 296.49 8.31023 296.48 6.01023 296.5H5.55023V296.04L5.49023 284.52V284H6.00023L19.6302 284.06C24.1702 284.06 28.7202 284.18 33.2602 284.23H33.5402V284.51C33.5202 286.46 33.4502 288.41 33.4102 290.33L33.2602 296.03L19.7502 296.32H19.7602Z" fill="#EBEBEB"/>
<path d="M63.5404 290.21C63.4904 288.29 63.4204 286.4 63.4104 284.51L63.6904 284.79C59.1504 284.84 54.6004 284.95 50.0604 284.96L36.4304 285.02L36.9404 284.51L36.8804 296.03L36.4204 295.57C38.6704 295.59 40.9104 295.57 43.1604 295.63L49.9304 295.75L63.6804 296.04L63.5304 290.22L63.5404 290.21ZM50.1704 296.32L43.3104 296.44C41.0204 296.49 38.7204 296.48 36.4204 296.5H35.9604V296.04L35.9004 284.52V284H36.4104L50.0404 284.06C54.5804 284.06 59.1304 284.18 63.6704 284.23H63.9504V284.51C63.9304 286.46 63.8604 288.41 63.8204 290.33L63.6704 296.03L50.1604 296.32H50.1704Z" fill="#EBEBEB"/>
<path d="M384.33 290.21C384.28 288.29 384.21 286.4 384.2 284.51L384.48 284.79C379.94 284.84 375.39 284.95 370.85 284.96L357.22 285.02L357.73 284.51L357.67 296.03L357.21 295.57C359.46 295.59 361.7 295.57 363.95 295.63L370.72 295.75L384.47 296.04L384.32 290.22L384.33 290.21ZM370.96 296.32L364.1 296.44C361.81 296.49 359.51 296.48 357.21 296.5H356.75V296.04L356.69 284.52V284H357.2L370.83 284.06C375.37 284.06 379.92 284.18 384.46 284.23H384.74V284.51C384.72 286.46 384.65 288.41 384.61 290.33L384.46 296.03L370.95 296.32H370.96Z" fill="#EBEBEB"/>
<path d="M384.33 6.22C384.28 4.3 384.21 2.41 384.2 0.52L384.48 0.8C379.94 0.85 375.39 0.96 370.85 0.97L357.22 1.03L357.73 0.52L357.67 12.04L357.21 11.58C359.46 11.6 361.7 11.58 363.95 11.64L370.72 11.76L384.47 12.05L384.32 6.23L384.33 6.22ZM370.96 12.32L364.1 12.44C361.81 12.49 359.51 12.48 357.21 12.5H356.75V12.04L356.69 0.52V0H357.2L370.83 0.06C375.37 0.06 379.92 0.18 384.46 0.23H384.74V0.51C384.72 2.46 384.65 4.41 384.61 6.33L384.46 12.03L370.95 12.32H370.96Z" fill="#EBEBEB"/>
<path d="M399.53 20.7398C399.48 18.8198 399.41 16.9298 399.4 15.0398L399.68 15.3198C395.14 15.3698 390.59 15.4798 386.05 15.4898L372.42 15.5498L372.93 15.0398L372.87 26.5598L372.41 26.0998C374.66 26.1198 376.9 26.0998 379.15 26.1598L385.92 26.2798L399.67 26.5698L399.52 20.7498L399.53 20.7398ZM386.17 26.8498L379.31 26.9698C377.02 27.0198 374.72 27.0098 372.42 27.0298H371.96V26.5698L371.9 15.0498V14.5298H372.41L386.04 14.5898C390.58 14.5898 395.13 14.7098 399.67 14.7598H399.95V15.0398C399.93 16.9898 399.86 18.9398 399.82 20.8598L399.67 26.5598L386.16 26.8498H386.17Z" fill="#EBEBEB"/>
<path d="M33.1202 6.22977C33.0702 4.30977 33.0002 2.41977 32.9902 0.529766L33.2702 0.809766C28.7302 0.859766 24.1802 0.969766 19.6402 0.979766L6.01023 1.03977L6.52023 0.529766L6.46023 12.0498L6.00023 11.5898C8.25023 11.6098 10.4902 11.5898 12.7402 11.6498L19.5102 11.7698L33.2602 12.0598L33.1102 6.23977L33.1202 6.22977ZM19.7602 12.3398L12.9002 12.4598C10.6102 12.5098 8.31023 12.4998 6.01023 12.5198H5.55023V12.0598L5.49023 0.539766V0.00976562H6.00023L19.6302 0.0697656C24.1702 0.0697656 28.7202 0.189766 33.2602 0.239766H33.5402V0.519766C33.5202 2.46977 33.4502 4.41977 33.4102 6.33977L33.2602 12.0398L19.7502 12.3298L19.7602 12.3398Z" fill="#EBEBEB"/>
<path d="M247.131 202.89C247.181 204.81 247.251 206.7 247.261 208.59L246.981 208.31C251.521 208.26 256.071 208.15 260.611 208.14L274.241 208.08L273.731 208.59L273.791 197.07L274.251 197.53C272.001 197.51 269.761 197.53 267.511 197.47L260.741 197.35L246.991 197.06L247.141 202.88L247.131 202.89ZM260.501 196.79L267.361 196.67C269.651 196.62 271.951 196.63 274.251 196.61H274.711V197.07L274.771 208.59V209.11H274.261L260.631 209.05C256.091 209.05 251.541 208.93 247.001 208.88H246.721V208.6C246.741 206.65 246.811 204.7 246.851 202.78L247.001 197.08L260.511 196.79H260.501Z" fill="#EBEBEB"/>
<path d="M262.34 188.37C262.39 190.29 262.46 192.18 262.47 194.07L262.19 193.79C266.73 193.74 271.28 193.63 275.82 193.62L289.45 193.56L288.94 194.07L289 182.55L289.46 183.01C287.21 182.99 284.97 183.01 282.72 182.95L275.95 182.83L262.2 182.54L262.35 188.36L262.34 188.37ZM275.7 182.26L282.56 182.14C284.85 182.09 287.15 182.1 289.45 182.08H289.91V182.54L289.97 194.06V194.58H289.46L275.83 194.52C271.29 194.52 266.74 194.4 262.2 194.35H261.92V194.07C261.94 192.12 262.01 190.17 262.05 188.25L262.2 182.55L275.71 182.26H275.7Z" fill="#EBEBEB"/>
<path d="M299.171 14.8301L226.091 100.96L337.221 121.19L299.171 14.8301Z" fill="#EBEBEB"/>
<path d="M296.641 28.77L239.431 96.19L326.421 112.02L296.641 28.77Z" fill="white"/>
<path d="M288.261 49.77L297.071 51.37L290.571 83.74L282.941 82.35L288.261 49.77Z" fill="#EBEBEB"/>
<path d="M289.808 87.829L282.193 86.4424L280.807 94.0572L288.422 95.4438L289.808 87.829Z" fill="#EBEBEB"/>
<path d="M95.9405 211.76L68.2305 279.41L140.68 269.58L95.9405 211.76Z" fill="#EBEBEB"/>
<path d="M97.1702 220.85L75.4902 273.8L132.19 266.1L97.1702 220.85Z" fill="white"/>
<path d="M96.2305 235.45L101.97 234.67L104.46 255.89L99.4905 256.56L96.2305 235.45Z" fill="#EBEBEB"/>
<path d="M104.801 258.551L99.8369 259.225L100.511 264.19L105.475 263.516L104.801 258.551Z" fill="#EBEBEB"/>
<path d="M202.73 365.68C297.794 365.68 374.86 359.224 374.86 351.26C374.86 343.296 297.794 336.84 202.73 336.84C107.665 336.84 30.5996 343.296 30.5996 351.26C30.5996 359.224 107.665 365.68 202.73 365.68Z" fill="#EBEBEB"/>
<path d="M360.89 293.7C360.89 293.7 369.06 264.37 375.59 254.41C382.12 244.45 394.28 233.51 394.28 233.51C394.28 233.51 393.99 278.73 360.89 293.71V293.7Z" fill="#FFC727"/>
<path d="M361.48 293.2C364.28 288.65 366.66 283.85 368.93 278.99C369.94 273.78 371.16 268.54 372.99 263.57C373.02 263.48 373.16 263.53 373.13 263.62C372.05 268.25 370.78 272.85 369.64 277.47C372.94 270.33 376.07 263.1 380 256.35C380.79 253.08 382.3 249.93 383.79 246.96C383.83 246.87 383.98 246.92 383.93 247.01C382.88 249.31 382.13 251.67 381.38 254.05C383.24 251.06 385.27 248.18 387.59 245.47C387.73 245.3 388.02 245.49 387.88 245.67C382.63 252.37 379 260 375.55 267.73C379.28 263.74 382.68 259.37 385.8 254.91C385.83 254.86 385.9 254.91 385.87 254.96C382.64 260.09 378.92 264.7 374.89 269.2C372.37 274.86 369.9 280.54 366.9 285.92C372.89 280.86 377.5 274.3 382.06 267.98C382.16 267.84 382.38 267.98 382.29 268.13C377.73 275.07 373 281.6 366.44 286.74C365.1 289.09 363.66 291.39 362.05 293.59C361.78 293.95 361.24 293.58 361.47 293.19L361.48 293.2Z" fill="#263238"/>
<path d="M358.359 296.34C358.359 296.34 373.05 269.29 368.78 243.07C364.51 216.85 359.94 207.51 359.94 207.51C359.94 207.51 336.85 248.3 358.35 296.34H358.359Z" fill="#FFC727"/>
<path d="M352.33 253.82C353.5 261.39 355.56 268.48 358 275.66C358.04 266.04 358.22 256.41 358.48 246.79C356.79 240.94 355.94 234.95 355.71 228.87C355.71 228.69 355.97 228.7 355.98 228.87C356.41 234.1 357.33 239.21 358.55 244.29C358.77 236.35 359.04 228.41 359.33 220.48C359.33 220.35 359.54 220.35 359.54 220.48C359.53 232.88 359.54 245.28 359.46 257.68C361.36 252.9 362.54 247.99 363.69 242.95C363.7 242.9 363.78 242.91 363.78 242.96C363.34 248.75 361.58 254.35 359.44 259.73C359.38 267.66 359.3 275.58 359.12 283.51C361.6 275.08 364.26 266.92 364.98 258.02C364.98 257.9 365.17 257.9 365.17 258.02C364.98 267.84 362.44 277.81 359.2 287.04C359.16 287.14 359.1 287.21 359.04 287.27C358.97 290.17 358.88 293.06 358.79 295.96C358.78 296.38 358.15 296.36 358.15 295.95C358.04 290.02 358 284.1 358.01 278.17C354.71 270.55 352.95 262.06 352.22 253.83C352.22 253.76 352.34 253.74 352.35 253.81L352.33 253.82Z" fill="#263238"/>
<path d="M353.339 249.64C353.809 251.96 354.239 254.42 354.369 256.79C354.369 256.87 354.25 256.88 354.23 256.81C353.62 254.52 353.289 252.04 353.019 249.69C352.999 249.51 353.309 249.47 353.339 249.65V249.64Z" fill="#263238"/>
<path d="M361.92 229.87C361.93 229.79 362.06 229.81 362.06 229.89C362.08 231.52 361.75 233.26 361.32 234.82C361.28 234.95 361.1 234.89 361.12 234.76C361.44 233.13 361.64 231.5 361.92 229.87Z" fill="#263238"/>
<path d="M353 298.41C353 298.41 353.6 270.18 345.5 256.14C337.4 242.11 323.97 234.96 323.97 234.96C323.97 234.96 329.39 284.73 353 298.41Z" fill="#FFC727"/>
<path d="M338.239 274.27C341.649 279.17 345.029 283.9 349.199 288.16C347.579 282.39 345.709 276.71 343.589 271.13C339.049 267.15 334.549 263.02 331.759 257.58C331.719 257.49 331.839 257.42 331.889 257.5C334.879 262.32 338.889 266.19 343.099 269.9C339.869 261.51 336.099 253.33 331.829 245.35C331.719 245.15 332.019 244.97 332.139 245.17C334.729 249.33 337.089 253.64 339.209 258.06C338.449 255.04 337.839 251.96 337.069 248.96C337.049 248.88 337.169 248.85 337.199 248.92C338.639 252.69 340.069 256.86 340.529 260.89C343.359 267.15 345.749 273.61 347.659 280.21C347.449 275.98 347.189 271.76 346.749 267.54C346.749 267.46 346.879 267.44 346.889 267.52C347.769 272.21 348.229 276.97 348.119 281.74C349.289 285.95 350.269 290.2 351.059 294.49C351.079 294.6 350.909 294.66 350.879 294.54C350.439 292.74 349.959 290.96 349.479 289.18C349.449 289.17 349.419 289.18 349.389 289.14C345.049 284.79 340.919 279.83 338.209 274.28C338.199 274.25 338.239 274.23 338.249 274.25L338.239 274.27Z" fill="#263238"/>
<path d="M328.859 251.3C329.759 252.27 330.589 253.3 331.459 254.3C332.229 255.19 333.169 256.02 333.789 257.02C333.809 257.06 333.769 257.11 333.729 257.08C332.689 256.42 331.849 255.35 331.039 254.42C330.179 253.45 329.419 252.49 328.729 251.39C328.679 251.31 328.789 251.22 328.859 251.29V251.3Z" fill="#263238"/>
<path d="M377.06 294.97L376.04 304.02L372.96 331.38H346.13L343.05 304.02L342.03 294.97H377.06Z" fill="#F2CA31"/>
<path d="M339.66 298.66H379.45V288.41H339.66V298.66Z" fill="#F2CA31"/>
<path d="M405.46 331.31L354.77 331.55L304.09 331.64L202.73 331.8L101.36 331.64L50.68 331.55L0 331.31L50.68 331.06L101.36 330.97L202.73 330.81L304.09 330.97L354.77 331.06L405.46 331.31Z" fill="#263238"/>
<path d="M74.5097 209.54V178.9H9.17969V154.43L84.1397 66.0098H104.5V154.23H124.19V178.91H104.5V209.55H74.5197L74.5097 209.54ZM39.1597 154.23H77.8697V107.76L39.1597 154.23Z" fill="#FFC727"/>
<path d="M331.8 209.54V178.9H266.46V154.43L341.42 66.0098H361.78V154.23H381.47V178.91H361.78V209.55H331.8V209.54ZM296.45 154.23H335.16V107.76L296.45 154.23Z" fill="#FFC727"/>
<path d="M258.89 123.18C258.89 132.23 257.43 140.56 254.53 148.16C251.62 155.77 247.59 162.35 242.45 167.9C237.3 173.45 231.19 177.77 224.1 180.85C217.01 183.93 209.37 185.48 201.16 185.48C192.95 185.48 185.12 183.94 178.11 180.85C171.1 177.77 165.02 173.45 159.87 167.9C154.72 162.35 150.7 155.77 147.79 148.16C144.88 140.55 143.43 132.22 143.43 123.18C143.43 114.14 144.88 105.8 147.79 98.1999C150.7 90.5899 154.73 84.0099 159.87 78.4599C165.02 72.9099 171.09 68.5599 178.11 65.3999C185.12 62.2499 192.8 60.6699 201.16 60.6699C209.52 60.6699 217.01 62.2499 224.1 65.3999C231.18 68.5599 237.3 72.9099 242.45 78.4599C247.6 84.0099 251.62 90.5899 254.53 98.1999C257.44 105.81 258.89 114.14 258.89 123.18ZM228.68 123.18C228.68 117.7 228.01 112.66 226.67 108.07C225.33 103.48 223.42 99.5399 220.96 96.2499C218.5 92.9599 215.59 90.4199 212.23 88.6399C208.87 86.8599 205.18 85.9699 201.15 85.9699C197.12 85.9699 193.21 86.8599 189.85 88.6399C186.49 90.4199 183.58 92.9599 181.12 96.2499C178.66 99.5399 176.76 103.48 175.41 108.07C174.07 112.66 173.4 117.7 173.4 123.18C173.4 128.66 174.07 133.67 175.41 138.19C176.75 142.71 178.65 146.62 181.12 149.91C183.58 153.2 186.49 155.74 189.85 157.52C193.21 159.3 196.97 160.19 201.15 160.19C205.33 160.19 208.87 159.3 212.23 157.52C215.59 155.74 218.5 153.2 220.96 149.91C223.42 146.62 225.32 142.71 226.67 138.19C228.01 133.67 228.68 128.66 228.68 123.18Z" fill="#FFC727"/>
<path d="M170.71 36.1599V39.6499H156.479V19.1499H170.449V22.6399H160.46V27.5799H169.089V30.8099H160.46V36.1499H170.71V36.1599Z" fill="#263238"/>
<path d="M173.829 39.6499V19.1499H182.899C183.839 19.1499 184.709 19.3499 185.509 19.7399C186.309 20.1299 186.999 20.6599 187.569 21.2999C188.149 21.9399 188.599 22.6799 188.929 23.4899C189.259 24.3099 189.419 25.1299 189.419 25.9599C189.419 27.2899 189.089 28.4999 188.419 29.5799C187.759 30.6699 186.859 31.4499 185.719 31.9299L190.399 39.6399H185.919L181.729 32.7699H177.799V39.6399H173.819L173.829 39.6499ZM177.809 29.2899H182.809C183.179 29.2899 183.519 29.1999 183.829 29.0299C184.149 28.8599 184.419 28.6199 184.649 28.3199C184.879 28.0199 185.059 27.6699 185.199 27.2699C185.329 26.8699 185.399 26.4299 185.399 25.9699C185.399 25.5099 185.319 25.0499 185.169 24.6399C185.019 24.2399 184.809 23.8799 184.549 23.5899C184.289 23.2899 183.989 23.0599 183.659 22.8999C183.319 22.7399 182.979 22.6499 182.639 22.6499H177.819V29.2899H177.809Z" fill="#263238"/>
<path d="M193.03 39.6499V19.1499H202.1C203.04 19.1499 203.91 19.3499 204.71 19.7399C205.51 20.1299 206.2 20.6599 206.77 21.2999C207.35 21.9399 207.8 22.6799 208.13 23.4899C208.46 24.3099 208.62 25.1299 208.62 25.9599C208.62 27.2899 208.29 28.4999 207.62 29.5799C206.96 30.6699 206.06 31.4499 204.92 31.9299L209.6 39.6399H205.12L200.93 32.7699H197V39.6399H193.02L193.03 39.6499ZM197.01 29.2899H202.01C202.38 29.2899 202.72 29.1999 203.03 29.0299C203.35 28.8599 203.62 28.6199 203.85 28.3199C204.08 28.0199 204.26 27.6699 204.4 27.2699C204.53 26.8699 204.6 26.4299 204.6 25.9699C204.6 25.5099 204.52 25.0499 204.37 24.6399C204.22 24.2299 204.01 23.8799 203.75 23.5899C203.49 23.2899 203.19 23.0599 202.85 22.8999C202.51 22.7399 202.17 22.6499 201.83 22.6499H197.01V29.2899Z" fill="#263238"/>
<path d="M220.979 39.7998C219.479 39.7998 218.119 39.5098 216.899 38.9198C215.679 38.3298 214.629 37.5498 213.749 36.5798C212.869 35.6098 212.199 34.4998 211.709 33.2498C211.229 31.9998 210.989 30.7198 210.989 29.4098C210.989 28.0998 211.239 26.7398 211.749 25.4798C212.259 24.2298 212.959 23.1198 213.859 22.1598C214.759 21.1998 215.819 20.4298 217.049 19.8598C218.279 19.2898 219.619 19.0098 221.059 19.0098C222.499 19.0098 223.889 19.3098 225.119 19.9198C226.339 20.5298 227.389 21.3198 228.249 22.2998C229.109 23.2798 229.789 24.3998 230.269 25.6498C230.749 26.8998 230.989 28.1698 230.989 29.4598C230.989 30.8298 230.739 32.1298 230.239 33.3698C229.739 34.6098 229.049 35.7098 228.159 36.6598C227.279 37.6098 226.219 38.3698 224.979 38.9398C223.749 39.5098 222.409 39.7898 220.969 39.7898L220.979 39.7998ZM215.029 29.3998C215.029 30.2898 215.159 31.1398 215.429 31.9698C215.699 32.7998 216.089 33.5298 216.599 34.1598C217.109 34.7998 217.739 35.3098 218.479 35.6898C219.219 36.0798 220.059 36.2698 221.009 36.2698C221.959 36.2698 222.819 36.0698 223.569 35.6798C224.309 35.2898 224.939 34.7598 225.449 34.1098C225.959 33.4598 226.349 32.7198 226.609 31.8998C226.869 31.0798 226.999 30.2498 226.999 29.3998C226.999 28.5498 226.859 27.6598 226.579 26.8298C226.299 25.9998 225.909 25.2698 225.399 24.6398C224.889 23.9998 224.259 23.4998 223.519 23.1198C222.779 22.7398 221.949 22.5598 221.019 22.5598C220.089 22.5598 219.199 22.7598 218.449 23.1498C217.699 23.5398 217.069 24.0598 216.569 24.7098C216.069 25.3498 215.689 26.0898 215.429 26.8998C215.169 27.7198 215.039 28.5498 215.039 29.3998H215.029Z" fill="#263238"/>
<path d="M234.06 39.6499V19.1499H243.13C244.07 19.1499 244.94 19.3499 245.74 19.7399C246.54 20.1299 247.23 20.6599 247.8 21.2999C248.38 21.9399 248.83 22.6799 249.16 23.4899C249.49 24.3099 249.65 25.1299 249.65 25.9599C249.65 27.2899 249.32 28.4999 248.65 29.5799C247.99 30.6699 247.09 31.4499 245.95 31.9299L250.63 39.6399H246.15L241.96 32.7699H238.03V39.6399H234.05L234.06 39.6499ZM238.04 29.2899H243.04C243.41 29.2899 243.75 29.1999 244.07 29.0299C244.39 28.8599 244.66 28.6199 244.89 28.3199C245.12 28.0199 245.3 27.6699 245.44 27.2699C245.57 26.8699 245.64 26.4299 245.64 25.9699C245.64 25.5099 245.56 25.0499 245.41 24.6399C245.26 24.2299 245.05 23.8799 244.79 23.5899C244.53 23.2899 244.23 23.0599 243.89 22.8999C243.55 22.7399 243.21 22.6499 242.87 22.6499H238.05V29.2899H238.04Z" fill="#263238"/>
<path d="M202.73 185.96C235.608 185.96 262.26 157.687 262.26 122.81C262.26 87.9334 235.608 59.6602 202.73 59.6602C169.853 59.6602 143.2 87.9334 143.2 122.81C143.2 157.687 169.853 185.96 202.73 185.96Z" fill="#FFC727"/>
<path opacity="0.1" d="M262.251 122.82C262.251 157.7 235.601 185.97 202.721 185.97C176.261 185.97 153.851 167.66 146.101 142.34C158.511 153.31 182.731 169.85 210.361 163.27C240.881 156 255.021 133.99 261.041 110.09C261.831 114.2 262.251 118.46 262.251 122.82Z" fill="black"/>
<path opacity="0.1" d="M235.38 77.8599C234.47 76.9399 233.48 76.1399 232.42 75.4399C233.32 75.3199 234.22 75.2099 235.11 75.0799C235.32 75.0499 235.25 74.7499 235.06 74.7299C233.81 74.6199 232.58 74.6699 231.35 74.7999C229.63 73.8099 227.77 73.0899 225.84 72.6399C227.59 72.0799 229.4 71.6299 231.29 71.2699C231.48 71.2299 231.44 70.9199 231.24 70.9299C229.02 71.0799 226.86 71.6099 224.8 72.3999C223.46 72.1499 222.1 72.0199 220.73 72.0199C220.62 72.0199 220.62 72.1799 220.73 72.1899C221.87 72.2899 222.95 72.4799 224.02 72.7199C222.81 73.2299 221.63 73.8299 220.5 74.4999C219.58 74.4399 218.66 74.4499 217.72 74.5599C217.62 74.5699 217.62 74.7199 217.72 74.7099C218.5 74.6699 219.26 74.7099 220.01 74.7899C218.77 75.5599 217.58 76.4099 216.47 77.3299C216.39 77.3899 216.5 77.4999 216.58 77.4399C217.88 76.4299 219.21 75.5899 220.58 74.8499C222.26 75.0699 223.86 75.5299 225.44 76.1199C224.12 76.5399 222.81 77.0199 221.52 77.5099C221.44 77.5399 221.47 77.6799 221.56 77.6499C223.07 77.0899 224.61 76.6999 226.16 76.3899C227.57 76.9399 228.97 77.5599 230.4 78.1599C230.61 78.2499 230.75 77.8999 230.56 77.7899C229.49 77.1999 228.4 76.6599 227.28 76.1899C228.61 75.9599 229.94 75.7799 231.28 75.5999C232.58 76.3499 233.84 77.1999 235.08 78.1599C235.29 78.3199 235.57 78.0599 235.37 77.8699L235.38 77.8599ZM226.37 75.8199C224.69 75.1799 222.95 74.7099 221.17 74.5399C222.41 73.9199 223.68 73.4099 224.99 72.9499C226.79 73.4299 228.51 74.1099 230.15 74.9599C228.88 75.1599 227.61 75.4499 226.37 75.8199Z" fill="black"/>
<path opacity="0.1" d="M156.86 119.73C157.06 119.64 156.91 119.37 156.72 119.4C155.88 119.54 155.08 119.83 154.3 120.19C154.58 119.29 154.91 118.39 155.29 117.51C155.4 117.26 155.07 117.05 154.92 117.29C154.26 118.36 153.8 119.47 153.48 120.61C152.34 121.27 151.29 122.13 150.39 123.12C150.44 121.45 150.69 119.77 151.12 118.03C151.18 117.78 150.83 117.7 150.74 117.93C149.98 119.82 149.71 121.81 149.82 123.8C149.01 124.8 148.32 125.88 147.81 126.97C147.77 127.06 147.89 127.14 147.94 127.05C148.51 126.03 149.16 125.16 149.87 124.38C149.95 125.25 150.11 126.12 150.33 126.97C149.95 127.32 149.58 127.67 149.24 128.02C149.14 128.12 149.29 128.26 149.39 128.17C149.72 127.87 150.07 127.6 150.42 127.31C150.66 128.16 150.95 129 151.31 129.81C151.35 129.9 151.51 129.84 151.47 129.74C151.13 128.84 150.89 127.95 150.71 127.07C151.41 126.52 152.12 126.01 152.9 125.57C152.95 125.54 152.99 125.53 153.04 125.5C153.1 126.35 153.2 127.2 153.38 128.05C153.4 128.16 153.55 128.11 153.54 128.01C153.41 127.1 153.39 126.21 153.42 125.32C154.42 124.81 155.46 124.4 156.44 123.85C156.62 123.75 156.49 123.49 156.3 123.52C155.32 123.71 154.35 124.11 153.43 124.64C153.51 123.46 153.71 122.3 154.01 121.15C154.9 120.64 155.84 120.17 156.84 119.72L156.86 119.73ZM150.64 126.71C150.47 125.77 150.38 124.83 150.37 123.89C151.24 123.03 152.2 122.29 153.24 121.64C153.03 122.72 152.96 123.82 153 124.93C152.16 125.46 151.37 126.07 150.64 126.71Z" fill="black"/>
<path d="M178.71 94.5803C168.27 101.69 163.1 110.96 163.72 121.28C164.34 131.6 156.61 139.84 155.73 151.1C154.85 162.36 161.47 170.34 161.47 175.48C161.47 180.62 156.39 189.69 156.39 189.69C156.39 189.69 167.46 204.16 197.95 203.68C228.44 203.2 242.79 192.87 242.79 192.87C242.79 192.87 238.37 183.26 237.93 180.38C237.49 177.5 244.17 166.96 244.36 157.93C244.55 148.9 236.44 136.72 236.41 132.24C236.38 127.76 237.35 102.29 217.99 92.9203C198.63 83.5503 182.06 92.2903 178.7 94.5803H178.71Z" fill="#263238"/>
<path d="M167 126.35C167.21 125.9 166.67 125.37 166.33 125.79C161.08 132.07 156.54 141.03 154.19 149.14C151.84 157.23 154.02 164.97 157.87 172.04C157.98 172.24 158.26 172.06 158.16 171.86C154 163.58 153.18 155.5 156.67 146.76C159.53 139.58 163.79 133.3 167.01 126.36L167 126.35Z" fill="#263238"/>
<path d="M245.81 157.78C244.44 149.35 239.23 141.01 235.4 133.67C235.2 133.28 234.57 133.54 234.72 133.98C237.09 141.04 241.1 147.42 243.28 154.53C245.68 162.38 244.82 170.72 241.32 177.98C241.21 178.21 241.51 178.4 241.64 178.18C245.32 172.19 246.97 164.92 245.81 157.77V157.78Z" fill="#263238"/>
<path d="M244.301 148.2C240.371 141.4 236.451 134.05 234.951 126.11C234.921 125.93 234.671 126.01 234.701 126.19C235.901 132.85 237.831 138.77 240.921 144.67C244.371 151.26 249.551 157.38 250.131 165.25C250.141 165.44 250.391 165.43 250.411 165.25C250.831 158.6 247.411 153.59 244.301 148.22V148.2Z" fill="#263238"/>
<path d="M164.49 198.54C130.91 237.62 90.7903 317.72 100.33 332.74C110.96 349.47 159.42 293.81 157.68 291.36C156.2 289.27 171.46 241.51 182.53 206.58C193.59 171.68 172.79 188.88 164.48 198.55L164.49 198.54Z" fill="#D3766A"/>
<path d="M164.49 198.54C130.91 237.62 90.7903 317.72 100.33 332.74C110.96 349.47 159.42 293.81 157.68 291.36C156.2 289.27 171.46 241.51 182.53 206.58C193.59 171.68 172.79 188.88 164.48 198.55L164.49 198.54Z" fill="#F2CA31"/>
<path d="M132.411 328.52L138.251 291.14C138.251 291.14 124.471 267.08 132.461 249.81C136.501 241.06 164.171 198.32 179.071 187.51C193.051 177.36 214.391 187.35 220.911 196.18C239.641 221.57 249.341 245.65 259.801 328.52H132.411Z" fill="#F2CA31"/>
<path d="M154.731 214.37C151.901 218.25 149.161 222.19 146.461 226.16C147.201 224.61 147.941 223.07 148.661 221.52C148.711 221.41 148.551 221.32 148.491 221.43C147.491 223.37 146.561 225.34 145.661 227.32C142.051 232.66 138.551 238.08 135.171 243.56C133.741 245.89 132.421 248.26 131.451 250.82C130.511 253.3 129.931 255.92 129.631 258.55C129.321 261.19 129.301 263.84 129.501 266.48C129.711 269.21 130.041 271.9 130.651 274.57C131.341 277.58 132.281 280.57 133.501 283.41C134.101 284.8 134.741 286.19 135.431 287.54C136.061 288.77 137.341 291.29 137.321 291.39C137.061 292.79 136.801 293.76 136.621 294.94C136.441 296.14 136.261 297.33 136.081 298.53C135.721 300.92 135.371 303.31 135.021 305.71C134.321 310.46 133.731 315.21 133.141 319.98C132.801 322.71 132.621 325.47 132.241 328.2C132.221 328.31 132.391 328.35 132.411 328.24C132.801 325.86 133.391 323.52 133.821 321.15C134.251 318.78 134.691 316.41 135.141 314.04C136.041 309.25 136.741 304.42 137.491 299.6C137.701 298.27 137.911 296.94 138.111 295.61C138.321 294.29 138.671 292.51 138.621 291.17C138.621 291.17 134.351 282.41 132.701 276.26C132.001 273.68 131.291 271 131.011 268.34C130.731 265.73 130.701 263.09 130.911 260.47C131.121 257.85 131.621 255.25 132.421 252.74C133.251 250.16 134.441 247.75 135.771 245.39C138.561 240.44 141.511 235.58 144.521 230.76C147.921 225.29 151.371 219.85 154.891 214.46C154.951 214.37 154.811 214.3 154.741 214.38L154.731 214.37Z" fill="#263238"/>
<path d="M181.12 286.47C175.18 286.84 169.21 287.4 163.38 288.65C160.48 289.27 157.63 290.02 154.78 290.83C153.36 291.24 151.93 291.59 150.5 291.94C149.03 292.3 147.45 292.62 145.92 292.61C145.78 292.61 145.78 292.81 145.92 292.82C147.4 292.92 148.81 293.01 150.3 292.92C151.71 292.83 153.12 292.59 154.5 292.3C157.45 291.7 160.37 290.97 163.31 290.34C169.24 289.07 175.18 287.8 181.19 286.97C181.47 286.93 181.42 286.46 181.14 286.48L181.12 286.47Z" fill="#263238"/>
<path d="M195.58 292.33C190.73 291.64 185.78 291.16 180.89 291.02C178.43 290.95 175.98 291.02 173.52 291.16C172.35 291.23 171.17 291.31 170 291.41C168.71 291.52 167.44 291.8 166.15 291.9C166.02 291.9 166.01 292.12 166.15 292.11C167.37 292.06 168.6 292.21 169.82 292.23C171.05 292.25 172.27 292.26 173.5 292.28C175.95 292.32 178.41 292.39 180.86 292.41C185.78 292.44 190.67 292.53 195.58 292.73C195.85 292.74 195.84 292.36 195.59 292.33H195.58Z" fill="#263238"/>
<path d="M101.13 334.41C111.3 344.34 133.5 342.39 189.85 342.73C197.65 342.78 212.78 287.84 204.46 287.36C193.98 286.76 153.15 286.69 150.17 287.07C124.99 290.21 94.2298 327.68 101.13 334.42V334.41Z" fill="#D3766A"/>
<path d="M185.559 288.47C185.559 288.47 207.359 282.03 219.859 282.19C236.599 282.4 250.959 289.48 256.799 292.81C268.989 299.76 293.659 324.99 287.629 333.36C282.169 340.94 258.259 313.88 258.259 313.88C258.259 313.88 287.189 337.45 278.949 345.37C270.699 353.29 244.729 320.29 244.729 320.29C244.729 320.29 273.919 345.17 264.119 351.99C256.719 357.14 231.509 328.59 231.509 328.59C231.509 328.59 256.449 350.15 249.059 355.78C240.899 362 215.979 337.1 215.979 337.1C194.799 348.25 179.909 343.99 169.769 340.36C167.319 339.48 185.559 288.47 185.559 288.47Z" fill="#D3766A"/>
<path d="M248.77 305.08C252.27 307.73 255.83 310.38 259.08 313.33C262.33 316.28 265.48 319.34 268.45 322.58C275.72 330.52 279.03 336.63 278.78 336.27C272.97 327.87 261.5 317.14 258.24 314.19C255 311.25 251.9 308.14 248.65 305.2C248.57 305.13 248.68 305.02 248.77 305.08Z" fill="#263238"/>
<path d="M237.91 316.63C242.23 320.2 246.65 323.59 250.82 327.35C254.96 331.09 258.57 335.01 262.45 339.03C262.75 339.34 262.48 339.4 262.17 339.1C258.14 335.24 254.11 331.98 250.03 328.16C245.97 324.36 242.02 320.37 237.82 316.72C237.75 316.66 237.85 316.57 237.91 316.62V316.63Z" fill="#263238"/>
<path d="M226.81 324.87C233.69 329.99 239.63 336.37 245.29 342.77C245.57 343.09 245.22 343.13 244.91 342.82C238.88 336.75 234.19 331.95 226.62 325.11C226.5 325 226.65 324.76 226.8 324.87H226.81Z" fill="#263238"/>
<path d="M211.5 281.97L172.62 344.69C172.62 344.69 109.87 348.84 100.48 333.43C91.09 318.03 135.17 287.71 150.08 286.99C165 286.27 211.5 281.97 211.5 281.97Z" fill="#F2CA31"/>
<path d="M127.1 297.35C130.34 294.42 139.7 287.24 150.08 286.99C150.2 286.99 150.22 287.15 150.11 287.17C141.76 288.57 130.58 294.9 127.21 297.48C127.12 297.55 127.02 297.42 127.1 297.35Z" fill="#263238"/>
<path d="M161.73 336.75C177.03 315.37 189.88 290.57 192.42 286.41C192.54 286.21 192.21 286.04 192.1 286.25C189.82 290.46 172.07 317.21 161.38 336.57C161.26 336.79 161.59 336.96 161.73 336.75Z" fill="#263238"/>
<path d="M207.41 187.94C206.61 190.26 190.77 207.36 180.28 203.99C172.9 201.63 181.27 185.38 181.27 185.38L178.69 163.4L207.42 149.08C207.42 149.08 207.74 186.94 207.41 187.93V187.94Z" fill="#D3766A"/>
<path d="M207.479 163.23C199.929 177.5 187.179 182.53 181.129 184.16L178.689 163.41L207.419 149.09C207.419 149.09 207.449 155.48 207.479 163.23Z" fill="#263238"/>
<path d="M158.16 123.741C145.68 157.771 164.65 169.091 171.99 171.771C178.65 174.211 201.66 181.651 217.59 149.091C233.52 116.531 221.64 99.9705 206.7 93.5905C191.75 87.2105 170.64 89.7005 158.16 123.731V123.741Z" fill="#D3766A"/>
<path d="M168.92 119.011C169.75 118.801 170.55 118.751 171.4 118.631C172.35 118.501 173.1 118.291 174 118.731C174.48 118.961 174.73 119.711 174.55 120.201C174.12 121.351 173 121.801 171.86 122.011C170.62 122.241 169.61 122.101 168.51 121.491C167.44 120.901 167.82 119.281 168.92 119.011Z" fill="#263238"/>
<path d="M195 122.591C194.21 122.261 193.54 121.821 192.79 121.401C191.95 120.941 191.23 120.651 190.77 119.761C190.52 119.281 190.77 118.531 191.22 118.251C192.25 117.591 193.42 117.901 194.46 118.421C195.58 118.981 196.31 119.701 196.82 120.841C197.32 121.951 196.04 123.021 195 122.581V122.591Z" fill="#263238"/>
<path d="M187.451 129.92C187.501 129.84 187.601 130.09 187.561 130.19C186.731 132.52 186.181 135.32 188.061 136.78C188.121 136.83 188.071 136.94 188.001 136.9C185.521 135.71 186.291 131.99 187.451 129.92Z" fill="#263238"/>
<path d="M190.331 128.13C194.201 129.05 192.081 136.73 188.491 135.88C184.961 135.04 187.081 127.36 190.331 128.13Z" fill="#263238"/>
<path d="M191.73 128.96C192.28 129.58 192.73 130.53 193.51 130.83C194.42 131.18 195.35 130.57 196.17 129.97C196.26 129.91 196.3 129.99 196.28 130.09C195.9 131.57 194.91 132.92 193.27 132.7C191.78 132.5 191.1 130.91 191.14 129.33C191.14 129.04 191.5 128.7 191.72 128.95L191.73 128.96Z" fill="#263238"/>
<path d="M173.05 125.92C173.05 125.82 172.83 125.98 172.81 126.08C172.25 128.48 171.2 131.14 168.83 131.36C168.76 131.36 168.73 131.49 168.81 131.5C171.54 131.84 172.9 128.29 173.05 125.92Z" fill="#263238"/>
<path d="M171.58 122.86C167.82 121.54 165.46 129.15 168.94 130.37C172.37 131.57 174.73 123.96 171.58 122.86Z" fill="#263238"/>
<path d="M169.84 122.87C169.11 123.09 168.29 123.63 167.56 123.46C166.71 123.26 166.35 122.24 166.06 121.29C166.03 121.19 165.95 121.24 165.92 121.34C165.43 122.78 165.44 124.45 166.75 125.16C167.95 125.81 169.27 124.85 170.07 123.51C170.22 123.26 170.14 122.79 169.85 122.88L169.84 122.87Z" fill="#263238"/>
<path d="M180.09 148.73C179.39 149.16 178.63 149.81 177.74 149.68C176.89 149.56 175.99 148.96 175.29 148.48C175.22 148.43 175.13 148.5 175.16 148.58C175.57 149.65 176.76 150.52 177.92 150.58C179.05 150.64 179.81 149.82 180.3 148.88C180.37 148.75 180.2 148.66 180.09 148.72V148.73Z" fill="#263238"/>
<path d="M172.65 137.29C172.65 137.29 170.95 141.04 170.47 142.71C170.43 142.87 176.71 144.6 180.16 145.12C180.37 145.15 180.54 144.39 180.35 144.33C175.67 142.88 174.78 142.58 172.15 141.87C172.17 141.37 174.94 136.13 174.68 136.04C173.79 135.7 171.81 135.8 170.64 135.8C173.59 128.62 177.66 121.98 180.49 114.79C180.59 114.53 180.23 114.34 180.08 114.56C175.32 121.22 171.74 129.4 168.51 136.74C168.1 137.65 171.9 137.39 172.65 137.3V137.29Z" fill="#263238"/>
<path d="M217.38 145.4C208.84 143.04 212.66 115.98 213.17 112.67C212.74 114.74 210.44 125.71 209.51 125.94C209.27 125.99 208.36 125.56 206.93 124.78H206.91C207.2 123.54 207.42 122.18 207.53 120.8C207.6 120.18 206.99 122.06 206.1 124.33C205.64 124.08 205.16 123.79 204.62 123.51C205.24 121.18 205.79 118.24 205.78 115.03C205.78 113.94 204.39 118.51 202.44 122.32C196.88 119.3 188.81 115.15 180.85 112.97C178.72 112.38 176.86 111.96 175.2 111.65C175.96 108.43 177.14 105.09 176.73 105.77C175.52 107.7 174.61 109.71 173.96 111.42C173.06 111.26 172.22 111.12 171.47 111.02C172.33 106.42 176.22 99.6903 175.23 100.63C171.42 104.27 169.19 108.49 168.17 110.77C164.93 110.63 164.03 110.21 164.03 110.21C164.23 108.72 166.96 99.8603 178.12 91.4403C191.81 81.1103 216.41 84.5003 224.79 103C224.79 103 233.2 111.88 232.27 122.74C231.35 133.57 222.32 146.77 217.39 145.41L217.38 145.4Z" fill="#263238"/>
<path d="M211.72 147.28C211.72 147.28 222.32 138.43 226.53 142.5C230.75 146.57 220.71 160.84 214.3 161.42C207.9 162.01 207.24 156.09 207.24 156.09L211.71 147.28H211.72Z" fill="#D3766A"/>
<path d="M223.55 146.521C223.65 146.541 223.63 146.671 223.54 146.681C219.01 147.231 215.84 150.421 213.27 153.941C214.89 152.761 216.77 152.381 218.4 154.371C218.49 154.471 218.34 154.611 218.23 154.561C216.66 153.751 215.37 153.711 213.88 154.741C212.82 155.471 211.95 156.521 211.08 157.461C210.79 157.771 210.18 157.401 210.44 157.021C210.46 156.991 210.48 156.961 210.5 156.931C211.81 151.701 217.82 145.521 223.55 146.511V146.521Z" fill="#263238"/>
<path d="M178.69 91.0503C178.69 91.0503 192.4 85.1103 208.07 92.2803C219.85 97.6703 232.54 106.77 236.72 129.1C236.72 129.1 242.01 104.22 224.16 91.7003C201.74 75.9703 183.48 85.9903 178.69 91.0503Z" fill="#FFC727"/>
<path d="M158.49 185.75C159.07 185.98 159.6 186.31 160.08 186.72C160.1 186.14 159.99 185.57 159.75 185.08C159.19 183.98 157.89 183.38 156.8 183.69C156.21 183.86 155.5 184.73 154.87 185.56C156.05 185.25 157.33 185.29 158.49 185.75Z" fill="#6FA04E"/>
<path d="M147.3 195.23C148.01 196.38 148.59 197.66 149.02 199.04L155.45 196.83C154.82 196.12 153.96 195.55 152.98 195.21C151.75 194.78 150.34 194.67 148.79 194.9C148.25 194.98 147.76 195.09 147.32 195.23H147.3Z" fill="#6FA04E"/>
<path d="M130.78 183.48C131.03 182.96 131.33 182.5 131.65 182.12C131.02 181.4 130.45 181.07 129.91 181.13C129.28 181.21 128.66 181.9 128.49 182.72C128.37 183.32 128.45 184 128.71 184.67L129.98 186.05C130.12 185.16 130.38 184.3 130.77 183.49L130.78 183.48Z" fill="#6FA04E"/>
<path d="M137.92 181.7C138.73 182.33 139.34 183.11 139.85 183.89C140.01 183.72 140.18 183.55 140.35 183.39C140.66 183.11 140.99 182.85 141.34 182.62C141.08 181.49 140.73 180.2 139.97 179.46C139.14 178.65 137.68 178.57 136.65 179.27C136.18 179.59 135.8 180.08 135.54 180.63C136.36 180.76 137.19 181.12 137.92 181.69V181.7Z" fill="#6FA04E"/>
<path d="M152.039 183.99C152.449 182.76 152.379 181.36 151.799 180.25C151.299 179.31 150.449 178.6 149.479 178.29C149.409 178.27 149.339 178.25 149.269 178.23C149.199 178.21 149.129 178.19 149.059 178.18C148.039 177.99 146.939 178.21 146.039 178.8C145.159 179.38 144.509 180.32 144.189 181.36C145.329 181.08 146.499 181.04 147.609 181.27C149.289 181.62 150.859 182.6 152.059 183.98L152.039 183.99Z" fill="#6FA04E"/>
<path d="M138.23 222.71L154.13 218.34L142.97 203.85L127.21 211.32L138.23 222.71Z" fill="white"/>
<path d="M157.5 188.25C156.41 187.82 155.1 188.08 154.29 188.85C154.5 190.03 154.53 191.28 154.39 192.58C155.8 193.29 157.04 194.32 157.99 195.59C159.01 194.5 159.82 192.55 159.71 191.36C159.59 190 158.68 188.73 157.5 188.26V188.25Z" fill="#B5322D"/>
<path d="M145.25 192.61C147.26 191.59 149.58 191.26 151.79 191.69C151.86 190.39 151.73 188.88 151.1 187.45C150.29 185.62 148.74 184.26 147.04 183.91C145.4 183.57 143.52 184.13 142.13 185.39C141.01 186.4 140.2 187.83 139.77 189.47C141.07 189.78 142.33 190.33 143.48 191.12C144.11 191.55 144.71 192.05 145.26 192.61H145.25Z" fill="#B5322D"/>
<path d="M133.55 189.88C134.66 189.42 135.87 189.18 137.09 189.17C137.33 188.13 137.69 187.14 138.16 186.24C137.6 185.34 137.03 184.42 136.27 183.83C135.73 183.41 134.91 183.11 134.29 183.37C133.78 183.59 133.4 184.19 133.17 184.66C132.52 186 132.37 187.57 132.73 189.01L133.54 189.89L133.55 189.88Z" fill="#B5322D"/>
<path d="M146.18 199.01C146.04 198.65 145.9 198.3 145.74 197.96C145.62 197.72 145.48 197.48 145.33 197.23C144.46 195.81 142.94 193.9 140.61 192.87C139.07 192.19 137.38 192.03 135.88 192.39L143.73 200.86L146.4 199.94C146.36 199.64 146.29 199.33 146.19 199.01H146.18Z" fill="#6FA04E"/>
<path d="M164.74 189.89C164.22 189.52 163.39 189.63 162.21 190.19C162.28 190.49 162.33 190.79 162.36 191.1C162.47 192.3 162.13 193.65 161.58 194.87C162.08 194.71 162.57 194.53 163.06 194.33C163.24 194.26 163.38 194.15 163.48 194.02C164.35 193.49 164.98 192.75 165.22 191.95C165.45 191.17 165.24 190.24 164.74 189.88V189.89Z" fill="#6FA04E"/>
<path d="M155.38 214.98L156.77 210.6L162.63 197.08L145.64 202.92L155.38 214.97V214.98ZM156.15 202.81C156.58 202.95 156.81 203.41 156.67 203.85C156.53 204.28 156.07 204.52 155.64 204.37C155.21 204.23 154.98 203.77 155.12 203.33C155.26 202.89 155.72 202.66 156.15 202.81ZM154.05 204.47C154.49 204.58 154.75 205.03 154.64 205.47C154.53 205.91 154.09 206.18 153.65 206.07C153.21 205.96 152.95 205.51 153.06 205.07C153.17 204.63 153.61 204.36 154.05 204.47Z" fill="#F2CA31"/>
<path d="M148.5 233.91L150.82 234.49L154.15 221.25L140.17 225.35L148.5 233.91Z" fill="white"/>
<path d="M141.06 201.78L128.85 188.6L127.63 203.28L126.58 208.63L141.06 201.78ZM135.59 198.98C136.02 199.12 136.25 199.58 136.11 200.02C135.97 200.45 135.51 200.69 135.08 200.54C134.65 200.39 134.42 199.94 134.56 199.5C134.7 199.07 135.16 198.83 135.59 198.98ZM132.38 201.7C132.27 202.14 131.83 202.41 131.39 202.3C130.95 202.19 130.69 201.74 130.8 201.3C130.91 200.86 131.35 200.59 131.79 200.7C132.23 200.81 132.49 201.26 132.38 201.7ZM132.22 196.44C132.66 196.55 132.92 197 132.81 197.44C132.7 197.88 132.26 198.15 131.82 198.04C131.38 197.93 131.12 197.48 131.23 197.04C131.34 196.6 131.78 196.33 132.22 196.44Z" fill="#F2CA31"/>
<path d="M137.05 225.87L125 213.99L121.68 227.21L132.07 229.82L132.08 229.78L143.74 232.71L137.07 225.86L137.05 225.87Z" fill="white"/>
<path d="M166.31 187.8C165.16 186.98 163.86 186.99 162.69 187.3C162.81 186.12 162.62 184.93 162.1 183.92C160.98 181.73 158.43 180.58 156.16 181.24C155.72 181.37 155.3 181.56 154.91 181.78C154.83 180.82 154.57 179.89 154.13 179.06C153.53 177.93 152.61 177.01 151.53 176.39C151.46 176.33 151.38 176.28 151.3 176.24C150.88 176.03 150.43 175.87 149.98 175.76C149.52 175.64 149.04 175.57 148.56 175.56C148.5 175.56 148.44 175.56 148.39 175.57C147.1 175.57 145.79 175.95 144.69 176.68C143.9 177.21 143.22 177.91 142.69 178.72C142.45 178.33 142.16 177.96 141.82 177.63C140.12 175.98 137.31 175.78 135.28 177.17C134.33 177.82 133.59 178.78 133.14 179.88C132.25 179.05 131.1 178.41 129.68 178.59C127.94 178.8 126.45 180.3 126.06 182.22C125.81 183.45 125.99 184.76 126.56 186L125.12 203.28L118.63 229.1L152.74 237.67L159.41 211.12L166.4 195C167.03 194.32 167.5 193.54 167.75 192.69C168.31 190.81 167.71 188.79 166.3 187.78L166.31 187.8ZM157.99 195.59C157.04 194.32 155.8 193.29 154.39 192.58C154.53 191.28 154.49 190.03 154.29 188.85C155.1 188.08 156.42 187.82 157.5 188.25C158.68 188.72 159.59 190 159.71 191.35C159.82 192.55 159 194.5 157.99 195.58V195.59ZM156.8 183.69C157.89 183.37 159.19 183.98 159.75 185.08C160 185.56 160.1 186.14 160.08 186.72C159.6 186.32 159.07 185.98 158.49 185.75C157.33 185.29 156.05 185.25 154.87 185.56C155.5 184.73 156.21 183.86 156.8 183.69ZM152.97 195.21C153.95 195.55 154.81 196.12 155.44 196.83L149.01 199.04C148.58 197.66 148 196.38 147.29 195.23C147.73 195.09 148.22 194.98 148.76 194.9C150.31 194.68 151.72 194.78 152.95 195.21H152.97ZM135.87 192.39C137.37 192.03 139.06 192.19 140.6 192.87C142.94 193.9 144.46 195.81 145.32 197.23C145.47 197.48 145.61 197.72 145.73 197.96C145.89 198.3 146.04 198.65 146.17 199.01C146.28 199.33 146.35 199.64 146.38 199.94L143.71 200.86L135.86 192.39H135.87ZM154.13 218.34L138.23 222.71L127.21 211.32L142.97 203.84L154.13 218.34ZM146.03 178.81C146.93 178.21 148.03 178 149.05 178.19C149.12 178.2 149.19 178.22 149.26 178.24C149.33 178.26 149.4 178.27 149.47 178.3C150.44 178.61 151.3 179.32 151.79 180.26C152.37 181.37 152.44 182.77 152.03 184C150.83 182.62 149.26 181.64 147.58 181.29C146.47 181.06 145.3 181.1 144.16 181.38C144.48 180.34 145.14 179.41 146.01 178.82L146.03 178.81ZM142.13 185.39C143.52 184.13 145.4 183.57 147.04 183.91C148.74 184.27 150.3 185.62 151.1 187.45C151.73 188.88 151.86 190.38 151.79 191.69C149.58 191.26 147.26 191.59 145.25 192.61C144.7 192.05 144.1 191.55 143.47 191.12C142.32 190.33 141.06 189.78 139.76 189.47C140.19 187.82 141.01 186.39 142.12 185.39H142.13ZM136.65 179.28C137.68 178.58 139.14 178.66 139.97 179.47C140.73 180.21 141.08 181.5 141.34 182.63C141 182.86 140.66 183.12 140.35 183.4C140.18 183.56 140.01 183.73 139.85 183.9C139.33 183.12 138.73 182.34 137.92 181.71C137.19 181.14 136.36 180.79 135.54 180.65C135.8 180.1 136.18 179.61 136.65 179.29V179.28ZM133.18 184.66C133.41 184.19 133.78 183.59 134.3 183.37C134.92 183.1 135.74 183.41 136.28 183.83C137.04 184.42 137.61 185.34 138.17 186.24C137.7 187.14 137.34 188.13 137.1 189.17C135.87 189.19 134.67 189.42 133.56 189.88L132.75 189C132.38 187.56 132.54 185.98 133.19 184.65L133.18 184.66ZM128.72 184.67C128.46 184 128.38 183.32 128.5 182.72C128.67 181.91 129.29 181.21 129.92 181.13C130.46 181.06 131.03 181.4 131.66 182.12C131.34 182.51 131.04 182.96 130.79 183.48C130.4 184.28 130.14 185.15 130 186.04L128.73 184.66L128.72 184.67ZM128.85 188.6L141.06 201.78L126.58 208.63L127.63 203.28L128.85 188.6ZM132.08 229.78V229.82L121.68 227.21L125 214L137.05 225.87H137.07L143.74 232.71L132.08 229.78ZM150.82 234.49L148.5 233.91L140.17 225.35L154.15 221.24L150.82 234.49ZM156.77 210.6L155.38 214.98L145.64 202.93L162.63 197.09L156.77 210.61V210.6ZM163.49 194.02C163.38 194.15 163.25 194.26 163.07 194.33C162.58 194.53 162.09 194.71 161.59 194.87C162.15 193.65 162.48 192.3 162.37 191.1C162.34 190.79 162.29 190.49 162.22 190.19C163.39 189.62 164.23 189.52 164.75 189.89C165.25 190.24 165.46 191.17 165.23 191.96C164.99 192.76 164.36 193.51 163.49 194.03V194.02Z" fill="#3A3A3A"/>
<path d="M131.82 198.03C132.26 198.14 132.7 197.87 132.81 197.43C132.92 196.99 132.66 196.54 132.22 196.43C131.78 196.32 131.34 196.59 131.23 197.03C131.12 197.47 131.38 197.92 131.82 198.03Z" fill="#3A3A3A"/>
<path d="M132.395 201.703C132.505 201.263 132.239 200.818 131.8 200.708C131.36 200.597 130.915 200.864 130.804 201.303C130.694 201.742 130.961 202.188 131.4 202.298C131.839 202.408 132.285 202.142 132.395 201.703Z" fill="#3A3A3A"/>
<path d="M135.07 200.54C135.5 200.68 135.96 200.45 136.1 200.02C136.24 199.59 136.01 199.13 135.58 198.98C135.15 198.84 134.69 199.07 134.55 199.5C134.41 199.93 134.64 200.39 135.07 200.54Z" fill="#3A3A3A"/>
<path d="M153.65 206.06C154.09 206.17 154.53 205.9 154.64 205.46C154.75 205.02 154.49 204.57 154.05 204.46C153.61 204.35 153.17 204.62 153.06 205.06C152.95 205.5 153.21 205.95 153.65 206.06Z" fill="#3A3A3A"/>
<path d="M155.64 204.37C156.07 204.51 156.53 204.28 156.67 203.85C156.81 203.42 156.58 202.96 156.15 202.81C155.72 202.67 155.26 202.9 155.12 203.33C154.98 203.76 155.21 204.22 155.64 204.37Z" fill="#3A3A3A"/>
<path d="M124.021 235.701L114.801 240.211L111.771 241.711L111.921 238.321L112.411 228.071L114.561 227.351C114.561 227.351 114.721 229.561 114.731 229.591L116.881 228.871C116.881 228.871 117.041 231.081 117.051 231.121L119.181 230.391C119.181 230.391 119.361 232.611 119.371 232.651L121.501 231.921C121.501 231.921 121.681 234.141 121.691 234.181L123.821 233.451C123.821 233.451 124.001 235.671 124.011 235.711L124.021 235.701Z" fill="#EBEBEB"/>
<path d="M229.97 214.04C241.79 242.57 259.74 302.3 246.3 321.12C233.35 339.24 159.46 298.49 144.47 290.15C138.32 286.73 154.7 233.99 161.68 236.82C177 243.03 208.23 264.42 209.06 264.03C209.79 263.68 208.76 239.51 208.58 215.71C208.32 181.09 221.48 193.53 229.97 214.04Z" fill="#D3766A"/>
<path d="M117.97 203.63C112.87 207.91 117.37 213.11 117.37 213.11C117.37 213.11 112.72 212.83 109.33 215.75C105.45 219.1 109 226.65 109 226.65C109 226.65 104.24 227.34 100.97 230.79C97.5801 234.37 100.07 242.5 100.07 242.5C100.07 242.5 95.9901 245.58 95.3001 250.59C94.1201 259.15 104.2 267.67 110.64 273.04C120.21 281.02 140.23 287.92 144.47 290.17L179.72 249.49C179.72 249.49 157.69 217.46 149.61 211.63C141.36 205.68 122.99 199.43 117.97 203.65V203.63Z" fill="#D3766A"/>
<path d="M118.22 212.701C126.9 215.661 134.24 221.031 141.86 225.971C142.03 226.081 141.86 226.341 141.69 226.231C134.16 221.231 125.74 217.781 118.03 213.091C117.82 212.961 117.99 212.621 118.22 212.701Z" fill="#263238"/>
<path d="M109.6 226.231C111.54 226.961 113.24 228.331 114.91 229.531C116.71 230.831 118.48 232.161 120.24 233.511C123.75 236.221 127.2 239.021 130.56 241.911C130.71 242.041 130.56 242.301 130.39 242.171C126.89 239.471 123.34 236.831 119.73 234.281C117.92 233.001 116.1 231.751 114.27 230.501C112.57 229.341 110.68 228.261 109.27 226.741C109.06 226.521 109.31 226.121 109.6 226.231Z" fill="#263238"/>
<path d="M100.22 242.601C101.93 243.171 103.46 244.711 104.84 245.831C106.41 247.101 107.99 248.361 109.58 249.611C112.75 252.111 115.93 254.621 119.19 257.011C119.35 257.131 119.19 257.391 119.02 257.271C115.69 254.861 112.34 252.491 109.03 250.051C107.41 248.851 105.79 247.641 104.18 246.431C102.81 245.401 100.98 244.261 100.08 242.761C100.03 242.681 100.13 242.581 100.21 242.611L100.22 242.601Z" fill="#263238"/>
<path d="M180.06 244.22L151.73 298.73C151.73 298.73 215.31 329.02 237.7 326.02C260.09 323.03 249.71 280.24 248.34 270.6C247.36 263.71 235.62 222.05 226.46 205.11C217.3 188.17 209.2 187.88 207.95 210.95C206.69 234.01 208.57 262.05 207.64 261.64C206.71 261.22 180.06 244.22 180.06 244.22Z" fill="#F2CA31"/>
<path d="M207.751 260.88C210.721 263.92 212.871 267.26 215.041 270.54C217.251 273.87 218.931 277.3 220.721 280.73C220.761 280.81 220.561 280.85 220.511 280.77C218.511 277.42 216.101 274.17 213.891 270.87C211.691 267.59 209.111 264.4 207.121 261.06C206.991 260.85 207.561 260.69 207.751 260.88Z" fill="#263238"/>
<path d="M239.221 237.7C240.901 244.57 247.501 268.31 248.671 275.27C249.891 282.21 250.831 289.21 251.101 296.22C251.171 299.73 251.111 303.19 250.671 306.66C250.251 310.11 249.591 313.55 248.211 316.64C246.851 319.72 244.611 322.34 241.601 323.7C238.601 325.08 235.131 325.37 231.721 325.19C224.841 324.81 218.031 322.81 211.311 320.77C204.591 318.69 197.951 316.3 191.311 313.9C184.671 311.51 178.071 309 171.491 306.43C164.911 303.86 158.321 301.3 151.781 298.64L151.841 298.81L153.591 295.17L151.621 298.7L151.561 298.81L151.681 298.87C158.101 301.84 164.551 304.74 171.051 307.51C177.561 310.27 184.111 312.95 190.701 315.53C197.301 318.09 203.961 320.48 210.721 322.67C217.481 324.77 224.341 326.93 231.621 327.33C235.231 327.48 239.021 327.17 242.471 325.56C244.191 324.77 245.741 323.58 247.001 322.18C248.271 320.77 249.241 319.14 249.981 317.45C251.451 314.05 252.091 310.45 252.501 306.9C252.951 303.35 252.881 299.72 252.711 296.17C251.071 272.6 243.311 251.25 239.211 237.73L239.221 237.7Z" fill="#263238"/>
<path d="M207.53 224.51C207.41 227.42 207.39 230.32 207.31 233.23L207.23 241.94C207.15 247.74 207.23 253.57 207.1 259.34L207.06 260.41L207.03 260.92L207.01 261.15V261.23C207.01 261.23 206.99 261.25 207 261.23V261.21L207.07 261.09C207.16 260.95 207.32 260.83 207.47 260.79L207.58 260.75C207.64 260.73 207.72 260.73 207.78 260.75C207.81 260.75 207.84 260.77 207.87 260.78L207.82 260.76C207.75 260.73 207.7 260.71 207.62 260.66L207.16 260.41L206.23 259.88C204.99 259.15 203.75 258.39 202.52 257.64L195.09 253.11L187.63 248.6L180.12 244.18L180.05 244.14L180.02 244.21L179.48 245.41L180.15 244.28L180.05 244.31C182.41 246.01 184.79 247.68 187.18 249.33L194.41 254.21C196.82 255.83 199.27 257.4 201.72 258.97C202.95 259.74 204.19 260.51 205.45 261.26L206.41 261.82L206.91 262.09C206.99 262.13 207.11 262.19 207.2 262.23L207.28 262.27L207.33 262.29C207.33 262.29 207.43 262.32 207.48 262.33C207.59 262.35 207.7 262.36 207.81 262.36C207.87 262.36 207.9 262.36 207.99 262.33C208.15 262.28 208.33 262.14 208.43 261.98C208.49 261.88 208.51 261.83 208.5 261.84L208.52 261.8L208.55 261.71C208.57 261.64 208.58 261.6 208.58 261.57L208.61 261.38L208.64 261.07L208.68 260.5L208.72 259.39C208.81 253.54 208.68 247.75 208.47 241.93L208.11 233.22C207.93 230.32 207.79 227.41 207.55 224.51H207.53Z" fill="#263238"/>
<path d="M176.101 283C179.321 276.73 182.491 270.43 185.941 264.27C187.901 260.77 189.851 257.26 191.841 253.78C191.921 253.65 192.151 253.76 192.091 253.9C189.111 260.32 186.111 266.76 182.831 273.04C179.571 279.29 176.371 285.58 173.021 291.79C171.121 295.32 169.121 298.79 167.001 302.2C166.961 302.27 166.841 302.21 166.871 302.14C169.631 295.61 172.841 289.3 176.091 282.99L176.101 283Z" fill="#263238"/>
<path d="M205.251 231.36C205.451 233.08 205.801 234.75 206.191 236.42C206.601 238.08 207.041 239.74 207.651 241.36C207.461 239.64 207.101 237.97 206.711 236.3C206.301 234.64 205.851 232.98 205.251 231.36Z" fill="#263238"/>
<path d="M174.49 189.17C174.49 189.17 172.95 205.73 182.54 206.58C192.13 207.43 206.85 194.08 212.79 189.17C212.79 189.17 204.78 181.85 191.63 182.6C180.31 183.25 174.49 189.17 174.49 189.17Z" fill="#D3766A"/>
<path d="M222.39 355.15H110.01V360.19H222.39V355.15Z" fill="#A6A6A6"/>
<path d="M222.39 355.15H165.83V360.19H222.39V355.15Z" fill="#C7C7C7"/>
<path d="M156.74 360.18H47.2202L31.7402 285.8H141.27L156.74 360.18Z" fill="#C7C7C7"/>
<path d="M102.73 324.65C103.15 328.68 100.23 331.95 96.2 331.95C92.17 331.95 88.56 328.68 88.13 324.65C87.71 320.62 90.63 317.35 94.66 317.35C98.69 317.35 102.3 320.62 102.73 324.65Z" fill="white"/>
<path d="M6.65954 247.13C2.75954 258.61 8.90954 271.08 20.3795 274.97C25.0195 276.55 29.8195 276.48 34.1495 275.08L43.4495 281.14L42.4295 270.22C44.9995 267.83 47.0195 264.79 48.2195 261.25C52.1195 249.77 45.9695 237.3 34.4995 233.41C23.0195 229.51 10.5495 235.66 6.65954 247.13Z" fill="#FFC727"/>
<path d="M21.3953 246.416L19.2881 248.523L33.4656 262.701L35.5728 260.594L21.3953 246.416Z" fill="white"/>
<path d="M35.574 248.535L33.4668 246.428L19.2893 260.606L21.3965 262.713L35.574 248.535Z" fill="white"/>
<path d="M98.98 62.8102C99.31 78.7002 112.46 91.3302 128.35 91.0001C134.77 90.8701 140.66 88.6402 145.38 84.9701L159.55 88.2801L153.41 75.2701C155.51 71.1801 156.64 66.5201 156.54 61.6201C156.21 45.7301 143.06 33.1002 127.17 33.4302C111.28 33.7602 98.65 46.9101 98.98 62.8001V62.8102Z" fill="white"/>
<path d="M98.9799 62.8101C99.1699 68.1001 100.69 73.3701 103.63 77.7801C104.3 78.9301 105.19 79.9101 105.99 80.9601C106.92 81.9001 107.77 82.9201 108.81 83.7501C109.78 84.6601 110.87 85.4002 111.95 86.1601C112.49 86.5401 113.09 86.8301 113.65 87.1701L114.51 87.6601C114.8 87.8102 115.11 87.9301 115.41 88.0701C117.77 89.2601 120.36 89.9201 122.93 90.4101C124.24 90.5701 125.54 90.7801 126.86 90.7501C128.17 90.8101 129.49 90.7501 130.8 90.6101C136.03 90.0201 141.05 87.9401 145.16 84.6901L145.29 84.5901L145.46 84.6301L159.65 87.8601L159.15 88.4701L152.97 75.4801L152.87 75.2701L152.98 75.0601C154.91 71.2401 155.97 66.9801 156.06 62.7001C156.07 58.4201 155.3 54.1001 153.42 50.2301C151.59 46.3501 148.9 42.8801 145.6 40.1301C142.29 37.3801 138.31 35.4601 134.12 34.4601C129.93 33.4701 125.49 33.4101 121.27 34.3601C117.05 35.3301 113.05 37.2601 109.66 39.9801C102.83 45.3901 98.8299 54.1001 98.9799 62.8201V62.8101ZM98.9799 62.8101C98.7799 54.0901 102.72 45.3301 109.56 39.8501C112.93 37.0801 116.93 35.0501 121.19 34.0101C125.45 32.9801 129.95 32.9701 134.25 33.9201C138.54 34.8801 142.64 36.7801 146.08 39.5401C149.52 42.3001 152.34 45.8501 154.23 49.8401C158.04 57.8301 157.99 67.6101 153.85 75.4901V75.0701L159.96 88.1001L160.35 88.9301L159.47 88.7201L145.32 85.3301L145.62 85.2601C141.36 88.5201 136.19 90.5701 130.87 91.0801C129.54 91.2101 128.2 91.2402 126.87 91.1601C125.53 91.1601 124.21 90.9401 122.89 90.7601C120.29 90.2301 117.69 89.5201 115.33 88.2801C112.95 87.1101 110.7 85.6501 108.73 83.8601C107.69 83.0301 106.84 82.0001 105.92 81.0501C105.12 79.9901 104.23 79.0001 103.57 77.8401C100.64 73.4001 99.1599 68.1101 98.9899 62.8201L98.9799 62.8101Z" fill="#263238"/>
<path d="M136.52 66.8902C136.52 65.5802 136.73 64.4102 137.16 63.3702C137.59 62.3302 138.47 61.4202 139.8 60.6502C140.2 60.4102 140.69 60.1402 141.28 59.8302C141.87 59.5202 142.44 59.1602 143 58.7302C143.56 58.3002 144.03 57.8002 144.42 57.2302C144.81 56.6602 145 56.0002 145 55.2502C145 54.6902 144.89 54.2002 144.68 53.7702C144.47 53.3402 144.19 52.9802 143.84 52.6902C143.49 52.4002 143.09 52.1802 142.62 52.0302C142.15 51.8802 141.68 51.8102 141.2 51.8102C140.61 51.8102 140.08 51.9102 139.6 52.1102C139.12 52.3102 138.69 52.5602 138.3 52.8702C137.91 53.1802 137.57 53.5202 137.26 53.9102C136.95 54.3002 136.69 54.6602 136.48 55.0102L133 52.6102C133.35 51.7802 133.81 51.0502 134.38 50.4102C134.95 49.7702 135.61 49.2302 136.34 48.7902C137.07 48.3502 137.87 48.0202 138.72 47.7902C139.57 47.5602 140.45 47.4502 141.36 47.4502C142.37 47.4502 143.37 47.6002 144.36 47.8902C145.35 48.1802 146.23 48.6502 147.02 49.2902C147.81 49.9302 148.45 50.7502 148.94 51.7502C149.43 52.7502 149.68 53.9502 149.68 55.3302C149.68 56.1802 149.58 56.9402 149.38 57.5902C149.18 58.2402 148.89 58.8402 148.52 59.3702C148.15 59.9002 147.71 60.3802 147.2 60.8102C146.69 61.2402 146.12 61.6502 145.48 62.0502C144.95 62.3702 144.41 62.6802 143.88 62.9702C143.35 63.2602 142.86 63.5902 142.42 63.9502C141.98 64.3102 141.62 64.7202 141.34 65.1902C141.06 65.6602 140.92 66.2202 140.92 66.8902H136.52ZM136.6 76.2202V70.7002H141.04V76.2202H136.6Z" fill="#FFC727"/>
<path d="M124.55 47.1002C124.93 47.1002 125.3 47.1602 125.66 47.2802C125.54 46.9502 125.35 46.6502 125.1 46.4402C124.54 45.9502 123.68 45.9002 123.13 46.3302C122.84 46.5602 122.64 47.2002 122.47 47.8102C123.06 47.3702 123.79 47.1002 124.54 47.1002H124.55Z" fill="#6FA04E"/>
<path d="M120.409 54.9203C121.069 55.4103 121.679 56.0003 122.229 56.6703L125.339 53.9903C124.829 53.7303 124.219 53.6103 123.589 53.6403C122.799 53.6803 121.989 53.9303 121.169 54.4103C120.879 54.5803 120.639 54.7503 120.419 54.9303L120.409 54.9203Z" fill="#6FA04E"/>
<path d="M108.51 52.0505C108.54 51.7005 108.6 51.3805 108.69 51.0905C108.18 50.8305 107.78 50.7705 107.49 50.9305C107.16 51.1105 106.96 51.6405 107.05 52.1405C107.12 52.5005 107.31 52.8705 107.61 53.1805L108.63 53.6605C108.51 53.1305 108.46 52.5905 108.5 52.0505H108.51Z" fill="#6FA04E"/>
<path d="M112.109 49.4405C112.709 49.6105 113.219 49.9105 113.689 50.2305C113.739 50.1005 113.799 49.9705 113.859 49.8405C113.969 49.6105 114.099 49.4005 114.239 49.1905C113.839 48.6205 113.349 47.9705 112.759 47.7305C112.109 47.4605 111.279 47.7505 110.859 48.3705C110.669 48.6605 110.559 49.0105 110.539 49.3805C111.029 49.2705 111.569 49.2805 112.109 49.4405Z" fill="#6FA04E"/>
<path d="M120.539 47.5606C120.489 46.7806 120.139 46.0106 119.569 45.5206C119.079 45.1006 118.439 44.9006 117.829 44.9406C117.789 44.9406 117.739 44.9406 117.699 44.9606C117.659 44.9606 117.609 44.9706 117.569 44.9806C116.959 45.1006 116.389 45.4706 116.019 46.0106C115.659 46.5306 115.499 47.2006 115.559 47.8606C116.139 47.4506 116.779 47.1606 117.459 47.0406C118.479 46.8606 119.579 47.0606 120.559 47.5606H120.539Z" fill="#6FA04E"/>
<path d="M121.5 72.3602L129.43 66.3402L119.92 60.7202L112.77 68.4602L121.5 72.3602Z" fill="white"/>
<path d="M124.56 48.7202C123.85 48.7202 123.17 49.1702 122.89 49.7802C123.27 50.3902 123.57 51.0902 123.79 51.8502C124.74 51.9302 125.67 52.2302 126.48 52.7302C126.81 51.8902 126.82 50.6202 126.49 49.9702C126.12 49.2402 125.32 48.7302 124.55 48.7302L124.56 48.7202Z" fill="#B5322D"/>
<path d="M118.67 53.9103C119.57 52.8903 120.79 52.1803 122.13 51.9203C121.88 51.1703 121.47 50.3603 120.79 49.7003C119.93 48.8503 118.75 48.4403 117.72 48.6303C116.72 48.8103 115.8 49.5503 115.3 50.5603C114.9 51.3703 114.76 52.3603 114.89 53.3803C115.69 53.2603 116.52 53.2903 117.34 53.4703C117.79 53.5703 118.24 53.7203 118.67 53.9103Z" fill="#B5322D"/>
<path d="M111.5 55.0105C112.02 54.5005 112.64 54.1005 113.33 53.8105C113.23 53.1705 113.21 52.5405 113.27 51.9205C112.76 51.5405 112.23 51.1505 111.67 50.9905C111.27 50.8805 110.74 50.8905 110.46 51.1805C110.22 51.4205 110.15 51.8405 110.12 52.1505C110.06 53.0405 110.32 53.9605 110.85 54.6905L111.5 55.0005V55.0105Z" fill="#B5322D"/>
<path d="M120.629 57.2903C120.469 57.1203 120.309 56.9503 120.149 56.8003C120.029 56.6903 119.899 56.5903 119.759 56.4803C118.959 55.8803 117.669 55.1503 116.129 55.1003C115.109 55.0603 114.129 55.3503 113.369 55.8903L119.669 58.8803L120.959 57.7703C120.869 57.6103 120.759 57.4503 120.629 57.3003V57.2903Z" fill="#6FA04E"/>
<path d="M128.99 48.0106C128.62 47.9206 128.17 48.1706 127.64 48.7506C127.75 48.9006 127.85 49.0606 127.93 49.2306C128.26 49.8806 128.38 50.7106 128.34 51.5206C128.58 51.3206 128.82 51.1106 129.05 50.8806C129.13 50.8006 129.19 50.7106 129.22 50.6106C129.59 50.1206 129.77 49.5606 129.73 49.0606C129.68 48.5706 129.36 48.1006 129 48.0106H128.99Z" fill="#6FA04E"/>
<path d="M129.37 64.1803L129.17 61.4203L129.42 52.5303L121.21 59.6203L129.38 64.1903L129.37 64.1803ZM127.07 57.1803C127.34 57.1603 127.58 57.3703 127.59 57.6403C127.61 57.9103 127.4 58.1503 127.13 58.1703C126.86 58.1903 126.62 57.9803 126.61 57.7103C126.6 57.4403 126.8 57.2003 127.07 57.1803ZM126.27 58.5803C126.54 58.5403 126.79 58.7303 126.82 59.0003C126.85 59.2703 126.67 59.5203 126.4 59.5603C126.13 59.6003 125.88 59.4103 125.85 59.1403C125.82 58.8703 126 58.6203 126.27 58.5803Z" fill="#F2CA31"/>
<path d="M129.77 76.3305L131.2 76.1404L130.09 67.9604L123.18 73.4005L129.77 76.3305Z" fill="white"/>
<path d="M118.379 60.0006L108.569 55.3506L111.179 63.8506L111.789 67.0806L118.369 59.9906L118.379 60.0006ZM114.689 59.6606C114.959 59.6406 115.199 59.8506 115.209 60.1206C115.229 60.3906 115.019 60.6306 114.749 60.6506C114.479 60.6706 114.239 60.4606 114.229 60.1906C114.209 59.9206 114.419 59.6806 114.689 59.6606ZM113.499 61.9006C113.539 62.1706 113.349 62.4206 113.079 62.4606C112.809 62.5006 112.559 62.3106 112.529 62.0406C112.499 61.7706 112.679 61.5206 112.949 61.4806C113.219 61.4406 113.469 61.6306 113.499 61.9006ZM112.229 58.9906C112.499 58.9506 112.749 59.1406 112.779 59.4106C112.809 59.6806 112.629 59.9306 112.359 59.9706C112.089 60.0106 111.839 59.8206 111.809 59.5506C111.779 59.2806 111.959 59.0306 112.229 58.9906Z" fill="#F2CA31"/>
<path d="M121.55 74.4002L112.13 70.4502L113.23 78.6002L119.65 77.7302L119.64 77.7102L126.84 76.7302L121.56 74.3902L121.55 74.4002Z" fill="white"/>
<path d="M129.4 46.4804C128.57 46.2804 127.84 46.5804 127.26 47.0104C127.06 46.3204 126.69 45.7004 126.17 45.2504C125.05 44.2804 123.36 44.2004 122.24 45.0804C122.02 45.2504 121.83 45.4504 121.66 45.6604C121.4 45.1404 121.04 44.6804 120.61 44.3104C120.02 43.8104 119.3 43.5004 118.55 43.4004C118.5 43.3804 118.44 43.3704 118.39 43.3704C118.11 43.3504 117.82 43.3604 117.54 43.4004C117.25 43.4404 116.97 43.5004 116.7 43.6004C116.67 43.6104 116.64 43.6304 116.61 43.6504C115.89 43.9404 115.24 44.4504 114.79 45.1104C114.46 45.5804 114.24 46.1304 114.13 46.7104C113.91 46.5404 113.66 46.4004 113.4 46.2904C112.08 45.7504 110.46 46.2704 109.63 47.5004C109.24 48.0804 109.05 48.7804 109.04 49.5004C108.35 49.2304 107.57 49.1404 106.81 49.5504C105.88 50.0604 105.38 51.2304 105.59 52.4004C105.72 53.1404 106.12 53.8404 106.72 54.4104L109.8 64.4204L111.96 80.3503L133 77.4903L130.78 61.1104L131.08 50.5104C131.28 49.9904 131.37 49.4404 131.32 48.9104C131.21 47.7304 130.42 46.7304 129.4 46.4904V46.4804ZM126.48 52.7204C125.66 52.2204 124.73 51.9204 123.79 51.8404C123.58 51.0804 123.28 50.3904 122.89 49.7704C123.17 49.1604 123.85 48.7104 124.56 48.7104C125.33 48.7104 126.13 49.2204 126.5 49.9504C126.83 50.6004 126.81 51.8704 126.49 52.7104L126.48 52.7204ZM123.14 46.3204C123.68 45.9004 124.54 45.9504 125.11 46.4304C125.36 46.6504 125.55 46.9404 125.67 47.2704C125.31 47.1504 124.94 47.0904 124.56 47.0904C123.81 47.0904 123.08 47.3604 122.49 47.8004C122.66 47.1904 122.86 46.5504 123.15 46.3204H123.14ZM123.58 53.6404C124.21 53.6104 124.82 53.7404 125.33 53.9904L122.22 56.6704C121.67 55.9903 121.06 55.4103 120.4 54.9204C120.62 54.7403 120.87 54.5704 121.15 54.4004C121.97 53.9304 122.78 53.6704 123.57 53.6304L123.58 53.6404ZM113.37 55.9004C114.13 55.3604 115.11 55.0704 116.13 55.1104C117.67 55.1704 118.95 55.8904 119.76 56.4904C119.9 56.6004 120.03 56.7004 120.15 56.8104C120.32 56.9604 120.48 57.1304 120.63 57.3004C120.76 57.4604 120.87 57.6204 120.96 57.7704L119.67 58.8804L113.37 55.8904V55.9004ZM129.43 66.3403L121.5 72.3604L112.76 68.4503L119.92 60.7204L129.43 66.3403ZM116.01 46.0004C116.38 45.4604 116.95 45.1004 117.56 44.9704C117.6 44.9704 117.65 44.9604 117.69 44.9504C117.73 44.9504 117.78 44.9404 117.82 44.9304C118.43 44.8904 119.07 45.0904 119.56 45.5104C120.14 46.0004 120.49 46.7704 120.53 47.5504C119.55 47.0504 118.45 46.8504 117.43 47.0304C116.76 47.1504 116.11 47.4304 115.53 47.8504C115.48 47.2004 115.63 46.5304 115.99 46.0004H116.01ZM115.3 50.5704C115.8 49.5504 116.73 48.8104 117.72 48.6404C118.76 48.4604 119.93 48.8704 120.79 49.7104C121.46 50.3704 121.88 51.1804 122.13 51.9304C120.8 52.1904 119.57 52.8904 118.67 53.9204C118.23 53.7304 117.79 53.5804 117.34 53.4804C116.52 53.3004 115.69 53.2704 114.89 53.3904C114.76 52.3704 114.89 51.3904 115.3 50.5704ZM110.86 48.3804C111.28 47.7504 112.11 47.4704 112.76 47.7404C113.35 47.9804 113.84 48.6304 114.24 49.2004C114.1 49.4104 113.97 49.6204 113.86 49.8504C113.8 49.9804 113.74 50.1104 113.69 50.2404C113.23 49.9204 112.71 49.6204 112.11 49.4504C111.57 49.3004 111.03 49.2804 110.54 49.3904C110.56 49.0204 110.67 48.6704 110.86 48.3804ZM110.12 52.1704C110.14 51.8603 110.22 51.4404 110.46 51.2004C110.75 50.9104 111.28 50.9004 111.67 51.0104C112.23 51.1704 112.76 51.5604 113.27 51.9404C113.21 52.5504 113.23 53.1904 113.33 53.8304C112.65 54.1204 112.02 54.5204 111.5 55.0304L110.85 54.7204C110.32 54.0004 110.05 53.0804 110.12 52.1804V52.1704ZM107.62 53.1804C107.32 52.8604 107.12 52.5004 107.06 52.1404C106.97 51.6504 107.16 51.1204 107.5 50.9304C107.79 50.7704 108.18 50.8304 108.7 51.0904C108.6 51.3804 108.54 51.7004 108.52 52.0504C108.48 52.5904 108.53 53.1304 108.65 53.6604L107.63 53.1804H107.62ZM108.58 55.3504L118.39 60.0004L111.81 67.0903L111.2 63.8604L108.59 55.3604L108.58 55.3504ZM119.64 77.7104V77.7304L113.23 78.6003L112.12 70.4503L121.54 74.4004H121.55L126.83 76.7304L119.64 77.7104ZM131.2 76.1404L129.77 76.3304L123.18 73.4104L130.09 67.9704L131.2 76.1404ZM129.17 61.4104L129.37 64.1704L121.2 59.6004L129.41 52.5104L129.16 61.4004L129.17 61.4104ZM129.21 50.6104C129.18 50.7004 129.13 50.8004 129.04 50.8804C128.81 51.1004 128.58 51.3204 128.33 51.5204C128.37 50.7104 128.25 49.8804 127.92 49.2304C127.84 49.0604 127.74 48.9004 127.63 48.7504C128.16 48.1704 128.6 47.9204 128.98 48.0104C129.34 48.1004 129.67 48.5704 129.71 49.0604C129.76 49.5604 129.57 50.1204 129.2 50.6104H129.21Z" fill="#3A3A3A"/>
<path d="M112.36 59.9702C112.63 59.9302 112.82 59.6802 112.78 59.4102C112.74 59.1402 112.49 58.9502 112.23 58.9902C111.97 59.0302 111.77 59.2802 111.81 59.5502C111.85 59.8202 112.1 60.0102 112.36 59.9702Z" fill="#3A3A3A"/>
<path d="M113.072 62.4525C113.341 62.4161 113.528 62.1693 113.492 61.9011C113.456 61.6329 113.209 61.4451 112.941 61.4815C112.672 61.5179 112.485 61.7647 112.521 62.0329C112.557 62.3011 112.804 62.4889 113.072 62.4525Z" fill="#3A3A3A"/>
<path d="M114.75 60.6505C115.02 60.6305 115.23 60.4005 115.21 60.1205C115.19 59.8505 114.96 59.6405 114.69 59.6605C114.42 59.6805 114.21 59.9105 114.23 60.1905C114.25 60.4605 114.48 60.6705 114.75 60.6505Z" fill="#3A3A3A"/>
<path d="M126.4 59.5703C126.67 59.5303 126.86 59.2803 126.82 59.0103C126.78 58.7403 126.53 58.5503 126.27 58.5903C126.01 58.6303 125.81 58.8803 125.85 59.1503C125.89 59.4203 126.14 59.6103 126.4 59.5703Z" fill="#3A3A3A"/>
<path d="M127.139 58.1705C127.409 58.1505 127.619 57.9205 127.599 57.6405C127.579 57.3705 127.349 57.1605 127.079 57.1805C126.809 57.2005 126.599 57.4305 126.619 57.7105C126.639 57.9905 126.869 58.1905 127.139 58.1705Z" fill="#3A3A3A"/>
</g>
<defs>
<clipPath id="clip0_1840_18846">
<rect width="405.46" height="391.35" fill="white"/>
</clipPath>
</defs>
</svg>
